<svg preserveAspectRatio="none" width="100%" height="100%" overflow="visible" style="display: block;" viewBox="0 0 13.1336 12.5807" fill="none" xmlns="http://www.w3.org/2000/svg">
<path id="Star 1" d="M5.7459 0.508789C6.08296 -0.169596 7.05069 -0.169596 7.38774 0.508789L8.71432 3.17875C8.8478 3.44739 9.10427 3.63372 9.40101 3.67765L12.3502 4.11424C13.0996 4.22517 13.3986 5.14553 12.8576 5.67573L10.7282 7.76244C10.514 7.9724 10.416 8.2739 10.4659 8.56969L10.9621 11.5095C11.0881 12.2564 10.3052 12.8252 9.6338 12.4745L6.99122 11.0942C6.72533 10.9553 6.40831 10.9553 6.14243 11.0942L3.49984 12.4745C2.82841 12.8252 2.0455 12.2564 2.17156 11.5095L2.6677 8.56969C2.71762 8.2739 2.61965 7.9724 2.40541 7.76244L0.276063 5.67573C-0.264962 5.14553 0.0340822 4.22517 0.783421 4.11424L3.73264 3.67765C4.02938 3.63372 4.28585 3.44739 4.41932 3.17875L5.7459 0.508789Z" fill="#070606"/>
</svg>
