<svg preserveAspectRatio="none" width="100%" height="100%" overflow="visible" style="display: block;" viewBox="0 0 14.3333 14.3333" fill="none" xmlns="http://www.w3.org/2000/svg">
<g id="elements">
<path id="Vector" d="M3.66666 9.07129C3.66661 8.20848 3.66655 7.41721 3.75327 6.77225C3.8488 6.06169 4.07356 5.31003 4.69179 4.69179C5.31003 4.07356 6.06169 3.8488 6.77225 3.75327C7.41721 3.66655 8.20848 3.66661 9.07129 3.66666L10.5621 3.66667C10.7594 3.66667 10.8581 3.66667 10.9174 3.60279C10.9768 3.53892 10.9697 3.4428 10.9555 3.25056C10.9432 3.08364 10.9275 2.92595 10.9074 2.77696C10.8212 2.13726 10.6488 1.60567 10.2812 1.15776C10.1496 0.997414 10.0026 0.85039 9.84225 0.718801C9.36962 0.330923 8.80382 0.160364 8.1165 0.0791208C7.44702 -1.37041e-05 6.60079 -7.57996e-06 5.53262 1.57255e-07H5.46739C4.39922 -7.7389e-06 3.55298 -1.39922e-05 2.8835 0.0791204C2.19619 0.160363 1.63039 0.330922 1.15776 0.7188C0.997414 0.850389 0.85039 0.997414 0.718801 1.15776C0.330923 1.63039 0.160364 2.19619 0.0791209 2.8835C-1.37041e-05 3.55298 -7.57996e-06 4.39921 1.57255e-07 5.46738V5.53261C-7.7389e-06 6.60078 -1.39922e-05 7.44702 0.0791204 8.1165C0.160363 8.80381 0.330922 9.36961 0.7188 9.84224C0.850389 10.0026 0.997414 10.1496 1.15776 10.2812C1.60567 10.6488 2.13726 10.8212 2.77696 10.9074C2.92594 10.9275 3.08364 10.9432 3.25056 10.9555C3.4428 10.9697 3.53892 10.9768 3.60279 10.9174C3.66666 10.8581 3.66666 10.7594 3.66666 10.5621V9.07129Z" fill="#7E7E7E"/>
<path id="Vector (Stroke)" fill-rule="evenodd" clip-rule="evenodd" d="M7.53568 5.22739C7.58195 5.58028 7.33339 5.90386 6.9805 5.95014C6.55652 6.00574 6.34581 6.09884 6.2076 6.21254C6.08564 6.31287 5.99982 6.44374 5.94294 6.72695C5.87285 7.07589 5.53316 7.30195 5.18421 7.23186C4.83527 7.16177 4.60922 6.82208 4.67931 6.47314C4.77786 5.98249 4.97941 5.55395 5.38879 5.21719C5.79034 4.88685 6.27284 4.74303 6.81293 4.67221C7.16582 4.62593 7.4894 4.8745 7.53568 5.22739ZM11.4642 5.22739C11.5105 4.8745 11.8341 4.62593 12.187 4.67221C12.7271 4.74303 13.2096 4.88685 13.6111 5.21719C14.0205 5.55395 14.222 5.98249 14.3206 6.47314C14.3907 6.82208 14.1646 7.16177 13.8157 7.23186C13.4667 7.30195 13.127 7.07589 13.057 6.72695C13.0001 6.44374 12.9142 6.31287 12.7923 6.21254C12.6541 6.09884 12.4434 6.00574 12.0194 5.95014C11.6665 5.90386 11.4179 5.58028 11.4642 5.22739ZM7.88886 5.31117C7.88886 4.95526 8.17738 4.66674 8.53329 4.66674H10.4666C10.8225 4.66674 11.111 4.95526 11.111 5.31117C11.111 5.66709 10.8225 5.95561 10.4666 5.95561H8.53329C8.17738 5.95561 7.88886 5.66709 7.88886 5.31117ZM5.31112 7.88891C5.66703 7.88891 5.95556 8.17744 5.95556 8.53335V10.4667C5.95556 10.8226 5.66703 11.1111 5.31112 11.1111C4.95521 11.1111 4.66669 10.8226 4.66669 10.4667V8.53335C4.66669 8.17744 4.95521 7.88891 5.31112 7.88891ZM13.6888 7.88891C14.0447 7.88891 14.3332 8.17744 14.3332 8.53335V10.4667C14.3332 10.8226 14.0447 11.1111 13.6888 11.1111C13.3329 11.1111 13.0443 10.8226 13.0443 10.4667V8.53335C13.0443 8.17744 13.3329 7.88891 13.6888 7.88891ZM5.18421 11.7681C5.53316 11.6981 5.87285 11.9241 5.94294 12.2731C5.99982 12.5563 6.08564 12.6871 6.2076 12.7875C6.34581 12.9012 6.55652 12.9943 6.9805 13.0499C7.33339 13.0961 7.58195 13.4197 7.53568 13.7726C7.4894 14.1255 7.16582 14.3741 6.81293 14.3278C6.27284 14.257 5.79034 14.1131 5.38879 13.7828C4.97941 13.446 4.77786 13.0175 4.67931 12.5269C4.60922 12.1779 4.83527 11.8382 5.18421 11.7681ZM13.8157 11.7681C14.1646 11.8382 14.3907 12.1779 14.3206 12.5269C14.222 13.0175 14.0205 13.446 13.6111 13.7828C13.2096 14.1131 12.7271 14.257 12.187 14.3278C11.8341 14.3741 11.5105 14.1255 11.4642 13.7726C11.4179 13.4197 11.6665 13.0961 12.0194 13.0499C12.4434 12.9943 12.6541 12.9012 12.7923 12.7875C12.9142 12.6871 13.0001 12.5563 13.057 12.2731C13.127 11.9241 13.4667 11.6981 13.8157 11.7681ZM7.88886 13.6888C7.88886 13.3329 8.17738 13.0444 8.5333 13.0444H10.4666C10.8225 13.0444 11.111 13.3329 11.111 13.6888C11.111 14.0447 10.8225 14.3333 10.4666 14.3333H8.5333C8.17738 14.3333 7.88886 14.0447 7.88886 13.6888Z" fill="#7E7E7E"/>
</g>
</svg>
