<svg preserveAspectRatio="none" width="100%" height="100%" overflow="visible" style="display: block;" viewBox="0 0 56.6212 21.7648" fill="none" xmlns="http://www.w3.org/2000/svg">
<g id="Group">
<g id="Group_2">
<path id="Vector" d="M2.55638 21.4181V10.1331H2.71267e-05V6.77417H2.55638V4.61987C2.55638 3.3185 2.92409 2.29851 3.66303 1.56165C4.4002 0.824789 5.42063 0.45548 6.72256 0.45548H10.1129V3.81443H7.41223C7.1624 3.81443 6.94776 3.9006 6.76655 4.07294C6.58357 4.24529 6.49384 4.46511 6.49384 4.73418V6.77241H16.7773V21.4164H12.8135V10.1314H6.49384V21.4164H2.55814L2.55638 21.4181ZM14.7928 4.93818C14.1224 4.93818 13.5436 4.69373 13.0545 4.2066C12.5654 3.7177 12.3226 3.13912 12.3226 2.46909C12.3226 1.79906 12.5672 1.22048 13.0545 0.731583C13.5436 0.242689 14.1224 0 14.7928 0C15.4631 0 16.0419 0.244448 16.531 0.731583C17.0201 1.22048 17.2629 1.79906 17.2629 2.46909C17.2629 3.13912 17.0184 3.7177 16.531 4.2066C16.0437 4.69549 15.4631 4.93818 14.7928 4.93818Z" fill="white"/>
<path id="Vector_2" d="M27.4906 21.7631C25.9195 21.7631 24.556 21.4377 23.3966 20.787C22.2372 20.1364 21.3434 19.2131 20.71 18.0155C20.0784 16.8196 19.7617 15.4162 19.7617 13.8089V0.457494H23.6974V8.58403H23.7256C24.0317 8.14438 24.41 7.761 24.8604 7.43566C25.3108 7.11032 25.8175 6.8606 26.3822 6.68825C26.947 6.51591 27.5364 6.42974 28.1486 6.42974C29.5843 6.42974 30.8299 6.74629 31.882 7.37763C32.9359 8.00897 33.754 8.87596 34.3381 9.97685C34.9222 11.0777 35.2142 12.3563 35.2142 13.8106C35.2142 14.959 35.0418 16.0177 34.697 16.9832C34.3521 17.9504 33.8542 18.7928 33.2033 19.5103C32.5523 20.2278 31.7483 20.7835 30.7912 21.1757C29.8341 21.5679 28.7327 21.7648 27.4871 21.7648L27.4906 21.7631ZM27.4906 18.4041C28.2753 18.4041 28.9456 18.2124 29.5016 17.8291C30.0575 17.4457 30.4833 16.9286 30.7806 16.278C31.078 15.6273 31.2258 14.8992 31.2258 14.0955C31.2258 13.2918 31.078 12.5638 30.7806 11.9131C30.4833 11.2624 30.0575 10.7454 29.5016 10.362C28.9456 9.97861 28.2753 9.78692 27.4906 9.78692C26.7059 9.78692 26.0585 9.97861 25.4937 10.362C24.929 10.7454 24.4979 11.2624 24.2006 11.9131C23.9033 12.5638 23.7555 13.2918 23.7555 14.0955C23.7555 14.8992 23.9033 15.6273 24.2006 16.278C24.4979 16.9286 24.929 17.4457 25.4937 17.8291C26.0585 18.2124 26.7235 18.4041 27.4906 18.4041Z" fill="white"/>
<path id="Vector_3" d="M43.5169 21.763C42.0232 21.763 40.7406 21.4658 39.6674 20.8731C38.5942 20.2805 37.7761 19.4856 37.2113 18.4902C36.6466 17.4948 36.3633 16.394 36.3633 15.1875V6.77435H40.299V15.1875C40.299 15.782 40.4433 16.3218 40.73 16.8107C41.0168 17.2996 41.4056 17.6865 41.893 17.9732C42.3803 18.2598 42.9222 18.404 43.5151 18.404C44.108 18.404 44.6499 18.2598 45.1372 17.9732C45.6263 17.6865 46.0134 17.2979 46.3002 16.8107C46.587 16.3236 46.7312 15.782 46.7312 15.1875V6.77435H50.6669V15.1875C50.6669 16.394 50.3837 17.4948 49.8189 18.4902C49.2542 19.4856 48.4396 20.2805 47.3769 20.8731C46.3143 21.4658 45.0264 21.763 43.5134 21.763H43.5169Z" fill="white"/>
</g>
<path id="Vector_4" d="M51.6562 3.99915V3.4786H53.6795V3.99915H51.6562ZM52.3476 5.76479V3.6826H52.988V5.76479H52.3476ZM54.0824 5.76479V3.47684H54.714V5.76479H54.0824ZM55.1749 5.76479L54.2952 3.47684H54.8336L55.3509 4.93297L55.8716 3.47684H56.41L55.5303 5.76479H55.1767H55.1749ZM55.9895 5.76479V3.47684H56.6211V5.76479H55.9895Z" fill="white"/>
</g>
</svg>
